# xmcd
#
# Track frame offsets: 
#        150
#        12692
#        22664
#        36368
#        46259
#        57878
#        68710
#        78866
#        89506
#        101125
#        113493
#        126731
#        136979
#        151185
#        162728
#        173673
#        187101
#        197182
#        208312
#        219634
#        231873
#        243195
#        255434
#        267831
#
# Disc length: 3704 seconds
#
# Revision: 1
# Processed by: cddbd v1.5.2PL0 Copyright (c) Steve Scherf et al.
# Submitted via: ExactAudioCopyFreeDBPlugin 1.0
#
DISCID=570e7618
DTITLE=Ray Price And The Cherokee Cowboys - The Honky Tonk Years - (19
DTITLE=50-1966) - CD03
DYEAR=2002
DGENRE=Country
TTITLE0=Sweet Little Miss Blue Eyes
TTITLE1=The Way She Got Away
TTITLE2=Let Me Talk To You
TTITLE3=Call The Lord And He'll Be There
TTITLE4=A Man Called Peter
TTITLE5=As Strange As It Seems (I Still Love You)
TTITLE6=I Can't Go Home Like This
TTITLE7=Don't You Know Me Any More
TTITLE8=I Don't Want It On My Conscience
TTITLE9=Run Boy
TTITLE10=You Never Will Be True
TTITLE11=Don't Tempt Me
TTITLE12=Slowly Dying
TTITLE13=Crazy Arms
TTITLE14=You Done Me Wrong
TTITLE15=Wild And Wicked World
TTITLE16=Crazy
TTITLE17=Are You Wasting My Time
TTITLE18=Fallin', Fallin', Fallin'
TTITLE19=Wasted Words
TTITLE20=Fallin', Fallin', Fallin'
TTITLE21=Wasted Words
TTITLE22=I've Got A New Heartache
TTITLE23=Don't Do This To Me
EXTD=
EXTT0=
EXTT1=
EXTT2=
EXTT3=
EXTT4=
EXTT5=
EXTT6=
EXTT7=
EXTT8=
EXTT9=
EXTT10=
EXTT11=
EXTT12=
EXTT13=
EXTT14=
EXTT15=
EXTT16=
EXTT17=
EXTT18=
EXTT19=
EXTT20=
EXTT21=
EXTT22=
EXTT23=
PLAYORDER=
